<mxfile host="app.diagrams.net" agent="Mozilla/5.0 (Macintosh; Intel Mac OS X 10_15_7) AppleWebKit/537.36 (KHTML, like Gecko) Chrome/138.0.0.0 Safari/537.36" version="26.1.0">
  <diagram name="Page-1" id="Xh_p26YmJaB4OydXEduj">
    <mxGraphModel dx="1034" dy="1039" grid="1" gridSize="10" guides="1" tooltips="1" connect="1" arrows="1" fold="1" page="1" pageScale="1" pageWidth="850" pageHeight="1100" math="0" shadow="0">
      <root>
        <mxCell id="0" />
        <mxCell id="1" parent="0" />
        <mxCell id="3" value="Orchestrator" style="whiteSpace=wrap;strokeWidth=2;" parent="1" vertex="1">
          <mxGeometry x="580" y="40" width="151" height="54" as="geometry" />
        </mxCell>
        <mxCell id="4" value="Validator" style="whiteSpace=wrap;strokeWidth=2;" parent="1" vertex="1">
          <mxGeometry x="790" y="210" width="124" height="54" as="geometry" />
        </mxCell>
        <mxCell id="5" value="Code Generator" style="whiteSpace=wrap;strokeWidth=2;" parent="1" vertex="1">
          <mxGeometry x="528" y="365" width="173" height="54" as="geometry" />
        </mxCell>
        <mxCell id="6" value="Executor" style="whiteSpace=wrap;strokeWidth=2;" parent="1" vertex="1">
          <mxGeometry x="701" y="620" width="123" height="54" as="geometry" />
        </mxCell>
        <mxCell id="7" value="Researcher" style="whiteSpace=wrap;strokeWidth=2;" parent="1" vertex="1">
          <mxGeometry x="1332" y="492" width="139" height="54" as="geometry" />
        </mxCell>
        <mxCell id="13" value="Coordinates" style="curved=1;startArrow=none;endArrow=block;exitX=0.24;exitY=1;entryX=0;entryY=0.42;" parent="1" source="3" target="4" edge="1">
          <mxGeometry relative="1" as="geometry">
            <Array as="points">
              <mxPoint x="53" y="202" />
            </Array>
          </mxGeometry>
        </mxCell>
        <mxCell id="14" value="Directs" style="curved=1;startArrow=none;endArrow=block;exitX=0.42;exitY=1;entryX=0;entryY=0.3;" parent="1" source="3" target="5" edge="1">
          <mxGeometry relative="1" as="geometry">
            <Array as="points">
              <mxPoint x="117" y="202" />
              <mxPoint x="117" y="329" />
            </Array>
          </mxGeometry>
        </mxCell>
        <mxCell id="15" value="Instructs" style="curved=1;startArrow=none;endArrow=block;exitX=0.57;exitY=1;entryX=0;entryY=0.33;" parent="1" source="3" target="6" edge="1">
          <mxGeometry relative="1" as="geometry">
            <Array as="points">
              <mxPoint x="170" y="202" />
              <mxPoint x="170" y="455" />
            </Array>
          </mxGeometry>
        </mxCell>
        <mxCell id="16" value="Collaborates with" style="curved=1;startArrow=none;endArrow=block;exitX=1;exitY=0.57;entryX=0.67;entryY=-0.01;" parent="1" source="3" target="7" edge="1">
          <mxGeometry relative="1" as="geometry">
            <Array as="points">
              <mxPoint x="1459" y="202" />
              <mxPoint x="1459" y="455" />
            </Array>
          </mxGeometry>
        </mxCell>
        <mxCell id="17" value="Validates" style="curved=1;startArrow=none;endArrow=block;exitX=0;exitY=0.59;entryX=0;entryY=0.22;" parent="1" source="4" target="5" edge="1">
          <mxGeometry relative="1" as="geometry">
            <Array as="points">
              <mxPoint x="257" y="329" />
            </Array>
          </mxGeometry>
        </mxCell>
        <mxCell id="18" value="Assesses" style="curved=1;startArrow=none;endArrow=block;exitX=0;exitY=0.59;entryX=0;entryY=0.25;" parent="1" source="4" target="6" edge="1">
          <mxGeometry x="0.0463" y="1" relative="1" as="geometry">
            <Array as="points">
              <mxPoint x="312" y="329" />
              <mxPoint x="312" y="455" />
            </Array>
            <mxPoint y="1" as="offset" />
          </mxGeometry>
        </mxCell>
        <mxCell id="19" value="Verifies" style="curved=1;startArrow=none;endArrow=block;exitX=0.72;exitY=0.99;entryX=0;entryY=0.23;" parent="1" source="4" target="7" edge="1">
          <mxGeometry relative="1" as="geometry">
            <Array as="points">
              <mxPoint x="1092" y="329" />
              <mxPoint x="1092" y="455" />
            </Array>
          </mxGeometry>
        </mxCell>
        <mxCell id="20" value="Generates code for" style="curved=1;startArrow=none;endArrow=block;exitX=0;exitY=0.98;entryX=0;entryY=0.15;" parent="1" source="5" target="6" edge="1">
          <mxGeometry relative="1" as="geometry">
            <Array as="points">
              <mxPoint x="402" y="455" />
            </Array>
          </mxGeometry>
        </mxCell>
        <mxCell id="21" value="Produces outputs for" style="curved=1;startArrow=none;endArrow=block;exitX=0.39;exitY=1;entryX=0;entryY=0.39;" parent="1" source="5" target="7" edge="1">
          <mxGeometry relative="1" as="geometry">
            <Array as="points">
              <mxPoint x="569" y="455" />
            </Array>
          </mxGeometry>
        </mxCell>
        <mxCell id="22" value="Executes tasks based on" style="curved=1;startArrow=none;endArrow=block;exitX=0.98;exitY=-0.01;entryX=0.85;entryY=1;" parent="1" source="6" target="5" edge="1">
          <mxGeometry relative="1" as="geometry">
            <Array as="points">
              <mxPoint x="754" y="455" />
            </Array>
          </mxGeometry>
        </mxCell>
        <mxCell id="23" value="Delivers results to" style="curved=1;startArrow=none;endArrow=block;exitX=1;exitY=0.37;entryX=1;entryY=0.9;" parent="1" source="6" target="4" edge="1">
          <mxGeometry relative="1" as="geometry">
            <Array as="points">
              <mxPoint x="1207" y="455" />
              <mxPoint x="1207" y="329" />
            </Array>
          </mxGeometry>
        </mxCell>
        <mxCell id="24" value="Researches to improve" style="curved=1;startArrow=none;endArrow=block;exitX=1;exitY=0.13;entryX=1;entryY=0.56;" parent="1" source="7" target="3" edge="1">
          <mxGeometry relative="1" as="geometry">
            <Array as="points">
              <mxPoint x="1627" y="455" />
              <mxPoint x="1627" y="202" />
            </Array>
          </mxGeometry>
        </mxCell>
        <mxCell id="25" value="Provides insights to" style="curved=1;startArrow=none;endArrow=block;exitX=0.39;exitY=-0.01;entryX=1;entryY=0.71;" parent="1" source="7" target="4" edge="1">
          <mxGeometry relative="1" as="geometry">
            <Array as="points">
              <mxPoint x="1365" y="455" />
              <mxPoint x="1365" y="329" />
            </Array>
          </mxGeometry>
        </mxCell>
        <mxCell id="26" value="Suggests enhancements to" style="curved=1;startArrow=none;endArrow=block;exitX=0;exitY=0.31;entryX=1;entryY=0.8;" parent="1" source="7" target="5" edge="1">
          <mxGeometry relative="1" as="geometry">
            <Array as="points">
              <mxPoint x="958" y="455" />
            </Array>
          </mxGeometry>
        </mxCell>
      </root>
    </mxGraphModel>
  </diagram>
</mxfile>
